<svg width="16" height="17" viewBox="0 0 16 17" fill="none" xmlns="http://www.w3.org/2000/svg">
<path d="M8.00816 16.1609C8.08254 16.3087 8.17852 16.4295 8.28783 16.5129C8.39713 16.5964 8.51649 16.64 8.63561 16.64C8.75474 16.64 8.87007 16.5964 8.97166 16.5129C9.07325 16.4295 -11.4295 -20.364 9.21879 16.1609L15.1801 1.74571C15.2492 1.57945 15.2852 1.3847 15.2842 1.18264C15.2832 0.980574 15.2453 0.77892 15.1747 0.599584C15.104 0.420249 15.0032 0.270091 14.8833 0.165425C14.7633 0.0607589 14.6288 0.00558805 14.4944 0.00590694H1.23928C1.10518 0.00674126 0.976307 0.0626215 0.866531 0.167538C0.756754 0.272455 0.670222 0.422438 0.61624 0.601359C0.562259 0.78028 0.54287 0.981368 0.56016 1.183C0.577449 1.38463 0.630762 1.57918 0.714366 1.74571L8.00816 16.1609Z" fill="#272726"/>
</svg>
