<svg width="14" height="17" viewBox="0 0 14 17" fill="none" xmlns="http://www.w3.org/2000/svg">
<path d="M7.04873 15.9084C7.11419 16.0539 7.19828 16.1728 7.29376 16.2549C7.38925 16.3371 7.49325 16.38 7.59683 16.38C7.70041 16.38 7.80045 16.3371 7.88834 16.2549C7.97623 16.1728 -10.0458 -20.0458 8.10135 15.9084L13.2081 1.71844C13.2672 1.55477 13.2974 1.36307 13.2955 1.16416C13.2936 0.965254 13.2596 0.76675 13.1972 0.590217C13.1348 0.413683 13.0464 0.265871 12.9415 0.162841C12.8367 0.0598102 12.7195 0.00550144 12.6026 0.00581534H1.07755C0.960961 0.00663663 0.84921 0.0616438 0.754319 0.164921C0.659427 0.268198 0.584986 0.415838 0.539 0.591963C0.493015 0.768089 0.477225 0.966035 0.493328 1.16452C0.509432 1.363 0.55682 1.5545 0.630395 1.71844L7.04873 15.9084Z" fill="#272726"/>
</svg>
